<svg width="40" height="40" viewBox="0 0 40 40" fill="none" xmlns="http://www.w3.org/2000/svg">
    <path
        d="M15.3419 3.91457C15.9388 3.91872 16.5353 3.92287 17.1047 3.92287H22.8985C23.4679 3.92287 24.0644 3.91872 24.6613 3.91457C26.2681 3.90339 27.8773 3.89219 28.9664 3.96194C32.9313 4.21584 35.6657 6.61819 36.0172 10.7002C36.1006 12.1671 36.0986 13.9341 36.0962 16.018V16.0186C36.0958 16.3763 36.0954 16.7433 36.0954 17.1197V22.9135C36.0954 23.2899 36.0958 23.6569 36.0962 24.0146C36.0986 26.0988 36.1006 27.866 36.0172 29.333C35.6657 33.4151 32.9313 35.8174 28.9664 36.0713C27.8773 36.1411 26.2681 36.1299 24.6613 36.1187C24.0644 36.1145 23.4679 36.1104 22.8985 36.1104H17.1047C16.5353 36.1104 15.9388 36.1145 15.3419 36.1187C13.7351 36.1299 12.1259 36.1411 11.0368 36.0713C7.07192 35.8174 4.33754 33.4151 3.98598 29.333C3.90263 27.8662 3.90464 26.0991 3.90701 24.0152V24.0146C3.90742 23.6569 3.90784 23.2899 3.90784 22.9135V17.1197C3.90784 16.7433 3.90742 16.3763 3.90701 16.0186V16.018C3.90464 13.9341 3.90263 12.1671 3.98598 10.7002C4.33754 6.61819 7.07192 4.21584 11.0368 3.96194C12.1259 3.89219 13.7351 3.90339 15.3419 3.91457Z"
        fill="url(#paint0_linear_2753_16477)" />
    <defs>
        <linearGradient id="paint0_linear_2753_16477" x1="20.0016" y1="3.90625" x2="20.0016"
            y2="36.127" gradientUnits="userSpaceOnUse">
            <stop stop-color="#A4C1FF" />
            <stop offset="1" stop-color="#0E78F9" />
        </linearGradient>
    </defs>
    <text x="12" y="25" fill="white" font-size="18" font-family="Arial" font-weight="bold">✔</text>
</svg>